<svg id="Parallax" xmlns="http://www.w3.org/2000/svg" viewBox="0 0 1920 1080"><defs><style>.cls-1{fill:#7908c8;}.cls-2{fill:#008db9;}.cls-3{fill:#3908d5;}.cls-4{fill:#0214bc;}.cls-5{fill:#0760d5;}</style></defs><title>Hero Banner</title><g id="Back_Sun" data-name="Back Sun"><g id="Back"><rect class="cls-1" width="1920" height="1080"/></g><g id="Sun"><circle class="cls-2" cx="1057.67" cy="300.65" r="170.9"/></g></g><g id="Piton_de_la_Fournaise" data-name="Piton de la Fournaise"><path class="cls-3" d="M1920,363.48V1080H0V467a279.4,279.4,0,0,1,48.3-8c9-.64,23.72,3.11,31.18-2.29,6.85-5,6.78-12.87,13.35-15.63,9.47-4,15.55,6.34,23.6,5.88,11-.63,15.15-6.18,23.1-13.47,11.22-10.29,16.5-22.34,32.72-29.73,29.77-13.57,60.42,3.16,88.51-16.76,17.7-12.54-.53-6.33,16.51-10,8.69-1.9,20.06.43,29.13-.12,18.27-1.1,32.37-7.84,47.91-11,17.76-3.62,29.82-8.29,46.93-12.77,13.69-3.59,21.83-12.08,34.17-16.93,5-2,11.47,1.66,16.42-1.05,12.06-6.6,23.9-32.64,35.59-42.46,17.16-14.43,36.82-24.43,59.23-26.39,15.57-1.36,41.61-4.54,56.4,0,12.73,3.9,11,10.89,19.72,23.13,13.63,19.16,35.75,32.35,58.58,37.27,7.43,1.6,14.73.87,21.9,2.46,10.47,2.32,16.23,10.88,25,12.66,32.84,6.66,40.48-51.56,62.3-64.38,17.69-10.39,54.55-2.61,72,3.72,15.89,5.75,18.49,3.45,25.31-.45a54.84,54.84,0,0,1,11.31-5,6.71,6.71,0,0,0,1-.4c1.72-.82,3.27-2.19,5.48-2.49,14.9-2,47,18.76,62.69,22.52,20.93,5,33.87-7.14,54.48-4.91,4.94.54,6.27,6,10.3,6.73,9.72,1.64,22.83-1.52,32.52-2.16,4-.27,9.2-.09,14.45-.15,6.41-.09,12.87-.52,17.21-2.54,15.74-7.32,28-24.68,45.66-32.21,16.32-7,38.19-7,51.88-19.07,8.29-7.3,12.25-12.43,16.51-15,5.25-3.19,11-2.54,25.84,2.62,10.65,3.7,38.1,25.77,45.52,24.3,3.92-.78,5.14-5.75,8.49-7.61,24.47-13.56,40.78-32.81,69.52-40.94,32.4-9.17,68.61-12.91,102-13.79,44.19-1.16,83.42,4.11,114,37.53,16.46,18,33.6,35.43,51.1,52.4,13.27,12.86,41.67,48.85,60.93,51.43,15.21,2,32.33-16.36,53.26-12.55,25.85,4.71,50.57,27,74.91,37,7.83,3.22,16.07,6.4,24.38,8.05,6.9,1.38,14.91,3.23,22,1.51,1.76-.43,9.64-6.46,9.71-6.47C1885.21,358.72,1904.15,363.63,1920,363.48Z"/></g><g id="_3th_Building" data-name="3th Building"><path class="cls-4" d="M0,1080V695.07H66.05v-49a10,10,0,0,1,10-10H158.1V560.41a10,10,0,0,1,10-10h10.77V532.78a10,10,0,0,1,10-10h28.06a10,10,0,0,1,10,10V551H339.11a10,10,0,0,1,10,10v519Z"/><path class="cls-4" d="M713.79,701v379H377.46V700.71a10,10,0,0,1,10-10h101.1V672.26a10,10,0,0,1,10-10l65.19.2a10,10,0,0,1,10,10v18.78l24.25,0,50-.1,55.77-.1A10,10,0,0,1,713.79,701Z"/><path class="cls-4" d="M1080.12,279.53V1080H785.53V574.91a10,10,0,0,1,10-10H829V563a10,10,0,0,1,10-10H899.2V279.53a10,10,0,0,1,1-4.37c.1-.21.21-.42.33-.62h0a9.94,9.94,0,0,1,8.66-5h160.92A10,10,0,0,1,1080.12,279.53Z"/><path class="cls-4" d="M1353.22,654.56V1080H1133.66V654.56a10,10,0,0,1,10-10h199.56A10,10,0,0,1,1353.22,654.56Z"/><path class="cls-4" d="M1629.69,309a31.15,31.15,0,0,1,9.16,22.1V1080H1439.46V300.78a31.25,31.25,0,0,1,31.25-31.25h126.88a10,10,0,0,1,10,10v20.33A31.17,31.17,0,0,1,1629.69,309Z"/><path class="cls-4" d="M1867.9,529.42V1080H1702.54V530.6a10,10,0,0,1,10-10h22V513a10,10,0,0,1,10-10H1829a10,10,0,0,1,10,10v6.42h18.88A10,10,0,0,1,1867.9,529.42Z"/></g><g id="_2sd_Building" data-name="2sd Building"><path class="cls-5" d="M688,759.67c0,.11,0,.22,0,.33v320H0V723H374a10,10,0,0,1,10,10V921h90V760a10,10,0,0,1,10-10h88V736a10,10,0,0,1,10-10h16V646a10,10,0,0,1,10-10h30a10,10,0,0,1,10,10v80h5a10,10,0,0,1,10,10v14h15a10,10,0,0,1,10,9.66Z"/><path class="cls-5" d="M1043,591v489H762V644a10,10,0,0,1,10-10h93V591a10,10,0,0,1,10-10h158A10,10,0,0,1,1043,591Z"/><path class="cls-5" d="M1920,720v360H1107V513a10,10,0,0,1,10-10h83a10,10,0,0,1,10,10V761h65V572a10,10,0,0,1,10-10h122a10,10,0,0,1,10,10V715h25a10,10,0,0,1,10,10v15h35a10,10,0,0,1,10,10v48h16V722a10,10,0,0,1,10-10h12a10,10,0,0,1,10,10v77h39V759a10,10,0,0,1,10-10h183V730a10,10,0,0,1,10-10Z"/></g><g id="_1st_Building" data-name="1st Building"><path class="cls-2" d="M90,1080H0V745H27a10,10,0,0,1,10,10v23H80a10,10,0,0,1,10,10Z"/><path class="cls-2" d="M314,1080H144V729a10,10,0,0,1,10-10h31v-8a10,10,0,0,1,10-10h81a10,10,0,0,1,10,10v8h18a10,10,0,0,1,10,10Z"/><path class="cls-2" d="M847,764v316H321V762a10,10,0,0,1,10-10H474a10,10,0,0,1,10,10V872h14V812a10,10,0,0,1,10-10h93a10,10,0,0,1,10,10v60h76V764a9.83,9.83,0,0,1,1-4.33h0a10,10,0,0,1,9-5.66H837A10,10,0,0,1,847,764Z"/><path class="cls-2" d="M1440,954v126H945V812a10,10,0,0,1,10-10h51V790a10,10,0,0,1,10-10h36v-9a10,10,0,0,1,10-10h30a10,10,0,0,1,10,10v9h20a10,10,0,0,1,10,10V916h25V799a10,10,0,0,1,10-10h154a10,10,0,0,1,10,10V944h11V758a10,10,0,0,1,10-10h36a10,10,0,0,1,10,10V944h32A10,10,0,0,1,1440,954Z"/><path class="cls-2" d="M1920,699v381H1739V709a10,10,0,0,1,10-10Z"/></g></svg>